<?xml version="1.0" encoding="utf-8"?>
<!-- Generator: Adobe Illustrator 21.0.0, SVG Export Plug-In . SVG Version: 6.00 Build 0)  -->
<svg version="1.1" id="レイヤー_1" xmlns="http://www.w3.org/2000/svg" xmlns:xlink="http://www.w3.org/1999/xlink" x="0px"
	 y="0px" viewBox="0 0 548.1 229.2" style="enable-background:new 0 0 548.1 229.2;" xml:space="preserve">
<style type="text/css">
	.st0{fill:#004832;}
	.st1{fill:#FFFFFF;}
	.st2{fill:#C6D700;}
</style>
<rect y="0" class="st0" width="548.1" height="125.4"/>
<path class="st0" d="M283.3,227.3c-4-3.7-4.6-6.6-1.3-11.2c10.5-14.8,16.1-31.5,18.5-50.1c-7,0-13.6,0-20.5,0c0-2.8,0-5,0-7.9
	c6.9,0,13.8,0,21.1,0c0.5-4.4,0.9-8.3,1.4-12.4c4,0,7.8,0,11.8,0c0,4,0,7.7,0,12.1c15.1,0,30,0,45.3,0c0,2.9,0,5.1,0,7.9
	c-15.3,0-30.5,0-46.2,0c-0.8,3.9-1.5,7.4-2.3,11.6c13.5,0,26.6,0,40.1,0c-1.7,12.9-7.4,23.3-15.7,33.4c8.4,3,16,5.6,24.3,8.6
	c-1.5,2.5-2.7,5.2-4.5,7.4c-0.7,0.9-3.1,1.2-4.2,0.8c-6.5-2.5-13-5-19.3-8.1c-3.3-1.6-5.6-2-9-0.1c-5.5,3-11.5,5.3-17.4,7.5
	c-6.2,2.3-6.3,2.1-9-4.4c7.6-3.4,15.2-6.8,22.9-10.3c-4.7-6.7-8.8-12.7-13.3-19C300.1,205.3,293.3,217.4,283.3,227.3z M326.8,204.9
	c5.4-5.8,8.9-12,10-19.6c-8.4,0-16.2,0-24.4,0C314.8,194,319.9,199.9,326.8,204.9z"/>
<path class="st0" d="M146.8,148.3c4.3,0,7.6,0,11.5,0c0.1,2.3,0.6,4.6,0.3,6.8c-0.7,4.9,1.5,6.2,5.9,5.7c2.8-0.3,5.6-0.1,8.9-0.1
	c0.1,2.8,0.3,5,0.4,7.9c-5,0-9.7,0-14.8,0c0,8.7,0,16.7,0,25.6c4.7,0,9.4,0,14.4,0c0,3.1,0,5.5,0,8.4c-3.4,0-6.6,0.2-9.7,0
	c-3.8-0.3-5.4,0.7-5.2,5c0.4,6.8,0.1,13.6,0.1,21.2c-3.1,0-5.7-0.1-8.2,0c-2.9,0.1-3.7-1.3-3.6-4c0.1-7.1,0-14.3,0-22.1
	c-8.7,0-17-0.1-25.2,0.1c-0.9,0-2.1,1.9-2.5,3.1c-3.8,10.2-10.8,17.8-19.5,24c-5.1-5.9-5-6.3-0.4-12c3.5-4.4,6.9-8.8,7.7-15.3
	c-4.7,0-8.8,0-13.3,0c0-2.8,0-5.2,0-8.2c3.9,0,7.7,0.3,11.4-0.1c1.4-0.2,3.8-1.9,3.8-3c0.3-7.3,0.2-14.6,0.2-22.4
	c-5.4,0-10.3,0-15.5,0c0-2.8,0-5,0-8.1c3.7,0,7.3-0.2,10.9,0.1c3.7,0.2,5.2-1.2,4.8-4.9c-0.2-2.3,0-4.6,0-7.4c4,0,7.7,0,12.2,0
	c0,2.6,0.2,5.2,0,7.8c-0.4,3.7,1.3,4.6,4.6,4.5c5.5-0.2,11-0.2,16.5,0c3.2,0.1,4.6-0.9,4.4-4.3C146.6,154,146.8,151.4,146.8,148.3z
	 M146.7,169.3c-8.9,0-16.9,0-25.1,0c0,8.5,0,16.5,0,25.1c7.7,0,15.2,0.1,22.6-0.1c0.9,0,2.4-1.8,2.4-2.8
	C146.8,184.2,146.7,176.9,146.7,169.3z"/>
<path class="st0" d="M421.4,217.3c2.7-0.8,4.6-1.3,6.4-1.9c1.7-0.5,3.4-1.2,5.2-1.8c1.7,4.9,0.5,8-4.4,9.5
	c-5.5,1.8-10.9,3.9-16.9,6.1c0-26.9,0-52.6,0-78.9c12.2,0,24.5,0,37.1,0c0,12.6,0,25.3,0,38.8c-5.1,0-10.2,0-16.7,0
	c2,4.6,3.5,8.1,5.3,12.3c3.6-3.3,6.5-5.9,9.7-8.8c2.1,1.9,4,3.7,6.3,5.8c-3.9,3.1-7.3,5.9-11.7,9.5c4.8,4.1,9.4,8,14.3,12.1
	c-3.2,3.6-5.4,6.2-8,9.1c-9.9-9.6-16.8-20.3-21.1-32.8c-0.4-1.3-0.6-2.7-1.2-3.8c-0.6-1.1-1.7-2-2.6-2.9c-0.5,1.1-1.5,2.1-1.5,3.2
	C421.3,200.7,421.4,208.6,421.4,217.3z M421.6,165.8c6.1,0,11.8,0,17.5,0c0-3.2,0-5.9,0-9.1c-5.9,0-11.6,0-17.5,0
	C421.6,159.9,421.6,162.6,421.6,165.8z M439.1,173.4c-6,0-11.7,0-17.3,0c-1,9.5-1,9.5,8.1,9.5c0.5,0,1,0,1.5,0
	C439.9,182.8,439.9,182.8,439.1,173.4z"/>
<path class="st0" d="M249.6,156.2c-1.9,1.5-3.1,2.5-5.6,4.4c8.7,0,16,0,23.6,0c0,2.9,0,5.2,0,8c-7.1,0-14,0-21.2,0
	c0,6.7,0,12.7,0,19.4c6.5,0,12.8,0,19.3,0c0,2.7,0,4.8,0,7.5c-6.4,0-12.6,0-19.2,0c0,7.7,0,14.8,0,22.5c7.6,0,15.4,0,23.4,0
	c0,2.8,0,5.1,0,7.7c-19.6,0-39.2,0-59.1,0c0-2.4,0-4.7,0-7.4c7.8,0,15.4,0,23.6,0c0-7.1,0.1-13.7-0.2-20.3c0-0.8-2.2-2.1-3.5-2.2
	c-5.3-0.2-10.6-0.1-16.2-0.1c0-2.6,0-4.7,0-7.6c5,0,9.9-0.2,14.8,0.1c3.7,0.2,5.6-0.7,5.2-4.9c-0.4-3.5-0.2-7,0-10.5
	c0.2-3.1-1-4.1-4-4.1c-5.8,0.2-11.6,0-17.8,0c0-2.7,0-4.9,0-7.7c7.9,0,15.8,0,23.7,0c0.3-0.4,0.5-0.9,0.8-1.3
	c-3.4-2.9-6.8-5.8-10.2-8.6c5.6-7.1,8-7.4,14-2.4C243.7,150.9,246.4,153.4,249.6,156.2z"/>
<path class="st0" d="M395.4,191.7c0,8.1,0,15.6,0,23.8c3.9-0.7,7.5-1.4,11.4-2.1c1.6,4.1,1.2,6.8-3.9,7.9
	c-9.5,2.2-18.9,4.9-28.9,7.5c-0.9-3.1-1.6-5.6-2.4-8.7c3.9-0.6,7.4-1,10.9-1.9c1.2-0.3,2.9-1.9,2.9-2.9c0.2-7.6,0.1-15.2,0.1-23.2
	c-4.5-0.2-8.6-0.4-12.8-0.6c0-2.4,0-4.4,0-6.8c4.1,0,8.1,0,12.4,0c0-2.7,0-4.9,0-7.1c-2.9-0.9-5.8-1.7-8.6-2.6
	c0.1-0.5,0.1-0.9,0.2-1.4c-1.1,0.6-2.2,1.3-4.6,2.6c-0.4-3.3-1.8-6.6-0.7-8.4c3.8-6.2,8.4-11.9,12.9-17.7c0.8-1,2.4-1.7,3.7-1.8
	c3.1-0.3,6.3-0.1,8.9-0.1c3.9,5.3,7.3,10.4,11.2,15c2.3,2.7,0.7,4.7-0.5,6.7c-0.7,1.2-2.2,1.8-4.2,3.5c0,0-0.2,1.4-0.5,3
	c-2.5,0.2-4.7,0.4-7.3,0.7c0,2.4,0,4.6,0,7.4c2.7,0,5.1,0,7.6,0c2.5,0,4.6,0.1,4.6,3.6c0,3.3-1.7,3.9-4.4,3.7
	C400.8,191.6,398.4,191.7,395.4,191.7z M401.6,169.5c-3.8-4.5-6.9-8.2-10.1-12c-3.5,4.2-6.5,7.8-10.1,12
	C388.2,169.5,394.3,169.5,401.6,169.5z"/>
<path class="st0" d="M203.4,146.3c2.6,1.1,6,2.4,9.7,3.9c-1,2.7-1.5,5.2-2.8,7.2c-4.3,7.1-5,14.9-4.8,23c0.3,14.3,0,28.6,0.2,42.9
	c0.1,4-1,5.6-5.3,5.4c-4-0.1-5.9-0.7-5.8-5.4c0.3-12.3,0.1-24.6,0-36.9c0-0.8-0.2-1.5-0.3-3.1c-2.6,2.3-4.7,4.3-6.9,6.2
	c-3.6-3.4-3.7-6-1.1-10.3C192.5,168.9,197.5,157.9,203.4,146.3z"/>
<path class="st0" d="M497.8,176c16.9,0,33.3,0,50.2,0c0,2.5,0,4.9,0,7.7c-3.6,0-7,0-11,0c-0.1,2.2-0.3,3.9-0.3,5.6
	c0,9.5,0,19-0.1,28.5c-0.1,7.2-2.4,9.6-9.6,9.9c-5.3,0.3-10.6,0-16.2,0c-0.4-2.6-0.8-5-1.3-8.1c3.9,0,7.4,0.4,10.8-0.2
	c1.8-0.3,4.6-2.3,4.6-3.6c0.4-10.4,0.2-20.9,0.2-32c-9.3,0-18.2,0-27.3,0C497.8,181.1,497.8,178.9,497.8,176z"/>
<path class="st0" d="M0.4,225.6c0-3.1,0-5.9,0-9.1c26.6,0,53,0,79.6,0c0,3,0,5.8,0,9.1C53.7,225.6,27.3,225.6,0.4,225.6z"/>
<path class="st0" d="M475.4,192.8c-2.9,1.7-5,2.8-7.6,4.3c-1.2-1.7-2.4-3.4-3.2-4.6c8-8.7,15.8-17.1,23.7-25.8
	c2.1,1.5,4.6,3.4,7.6,5.6c-2.2,2.6-4,5.2-6.3,7.3c-2.7,2.5-3.4,5.3-3.4,8.9c0.2,13.1,0.1,26.3,0.1,39.8c-3.6,0-7,0-11,0
	C475.4,216.6,475.4,205.1,475.4,192.8z"/>
<path class="st0" d="M3.6,164.5c0-3.3,0-5.9,0-9c24.4,0,48.5,0,72.9,0c0.2,0.9,0.4,1.7,0.5,2.5c0.5,6.7,0.4,6.8-6.1,6.8
	c-20.6,0-41.3,0-61.9,0C7.3,164.7,5.6,164.6,3.6,164.5z"/>
<path class="st0" d="M7.4,193.6c0-3,0-5.8,0-9c21.7,0,43.3,0,65.4,0c0,2.8,0,5.6,0,9C51.3,193.6,29.7,193.6,7.4,193.6z"/>
<path class="st0" d="M500.4,151.5c15.1,0,29.9,0,45.1,0c0,2.5,0,5,0,7.9c-15.1,0-30,0-45.1,0C500.4,156.6,500.4,154.2,500.4,151.5z"
	/>
<path class="st0" d="M486.3,146.8c2.4,2,4.9,4.1,8.6,7.2c-8.4,7.1-16.2,13.8-24.3,20.7c-2-2.7-3.3-4.4-4.6-6.1
	C472.7,161.4,479.2,154.3,486.3,146.8z"/>
<path class="st0" d="M373.3,197.6c7.3-1.6,7.4-1.6,8.2,5c0.4,2.9,0.6,5.8,0.9,8.7c-7.1,1.4-7.2,1.3-8-5
	C374.1,203.4,373.7,200.5,373.3,197.6z"/>
<path class="st0" d="M405.3,208.8c-2.6,0-4.4,0-6.2,0c-1.9-9.5,0.2-12.7,8.1-11.3C406.6,201.2,406,204.8,405.3,208.8z"/>
<path class="st1" d="M306.9,33.7c0.5,4,1,8.1,1.4,12.1c1.3,12.2,2.6,24.5,3.7,36.7c0.4,4.5,1.9,7.7,7,8c0.5,0,1,0.7,2.5,2
	c-6.3,0-11.3,0-16.5,0c-0.5-6.4-1-12.8-1.5-19.2c-0.5-6.3-1-12.6-2.4-19.2c-5.8,13-11.5,25.9-17.3,38.9c-0.6,0.1-1.3,0.2-1.9,0.3
	c-5.8-12.8-11.6-25.6-17.5-38.3c-0.3,0.1-0.7,0.1-1,0.2c-0.8,10.7-1.8,21.4-2.2,32.1c-0.1,1.6,2.8,3.3,4.6,5.4c-5.6,0-10.7,0-15.9,0
	c5.9-2.4,5-7.5,5.5-11.9c1.4-13.9,2.8-27.8,4.2-41.7c0.2-1.7,0.7-3.5,1.9-5.4c8.7,14.8,14.8,30.7,22.7,46.7
	c7-16.1,13.8-31.5,20.5-46.9C305.4,33.4,306.2,33.6,306.9,33.7z"/>
<path class="st1" d="M325.6,36.9c1-1.3,1.3-1.9,1.6-1.9c8.3,0.1,16.7-0.7,24.7,0.8c8.3,1.5,11.2,10.2,7.4,18.4
	c-0.9,1.9-2.3,3.6-3.7,5.7c0.7,0.5,1.4,1.1,2.1,1.5c6.7,4,9.9,9.7,8.7,17.5c-1.1,7.4-5.8,12.6-12.9,13.4c-8.5,1-17.2,0.2-26.3-0.2
	c6.4-2.5,5.2-7.8,5.3-12.6c0.1-11.6,0-23.3,0.1-34.9C332.7,40.2,332,36.6,325.6,36.9z M340.8,63.7c-0.1,1.3-0.2,2.8-0.2,4.3
	c0,5.5-0.1,11,0.1,16.5c0,1.2,0.8,2.6,1.7,3.4c4.4,3.6,14.1,0.8,15.6-4.7C361,71.8,351.7,60.1,340.8,63.7z M340.8,38.7
	c0,6.9,0,13.3,0,20.2c4-0.3,8.2,1.7,10.9-2.8c2.8-4.6,2.2-9.3-0.4-13.6C349.1,38.6,345.4,37.6,340.8,38.7z"/>
<path class="st1" d="M424.7,34.5c0,6.3,0,11.2,0,16.1c-0.4,0-0.7,0.1-1.1,0.1c-0.4-0.6-1.1-1.2-1.2-1.9c-0.2-6.7-5.1-10.1-12.8-10.7
	c-17-1.2-24.7,6.7-24.3,24.7c0.3,15,11.6,26.5,25.8,26c7.5-0.2,10.2-2.2,12.7-9.4c0.2-0.7,0.8-1.3,1.2-2.1
	c3.8,6.4,0.5,14.6-6.1,15.7c-11.7,1.9-23.2,1.9-32.4-6.8c-9.7-9.2-11.3-20.9-7.8-33.1c3.3-11.7,11.5-18.7,23.8-19.4
	C410.1,33.3,417.5,34.2,424.7,34.5z"/>
<path class="st2" d="M139.1,52.7c0,13.7,0.1,26.5-0.1,39.3c0,1.3-1.1,3.3-2.2,3.9c-4.5,2.3-9.3,4.1-14.5,6.4
	c-0.2-1.9-0.5-3.2-0.5-4.4c0-11,0.1-21.9-0.1-32.9c0-3.4,1-5.6,4.3-6.8C130.2,56.6,134.3,54.8,139.1,52.7z"/>
<path class="st2" d="M161.6,66.8c0-14-0.1-27.2,0.1-40.5c0-1,1.5-2.5,2.7-3c4.5-2.1,9.1-3.9,14.6-6.2c0,4.4,0,8.2,0,11.9
	c-0.1,8.8,0.1,17.7-0.4,26.5c-0.1,2-1.9,4.5-3.6,5.5C171,63.3,166.6,64.7,161.6,66.8z"/>
<path class="st2" d="M159.2,27.5c0,12.6,0,25.3-0.1,37.9c0,1.4-0.4,3-1.2,4.2c-5.1,7.7-10.4,15.4-16.4,24.2c0-7.2,0.6-13.3-0.1-19.2
	c-2.1-16.1,2.2-30,13-42c1.5-1.7,2.6-3.7,3.8-5.6C158.6,27.2,158.9,27.4,159.2,27.5z"/>
<path class="st1" d="M212.2,78.5c0.4,1,1,2,1.1,3c0.4,4.3,2.8,6.6,6.7,7.6c4.5,1.1,9.4,0.8,11.5-3.4c1.5-2.9,1.2-7.4,0.2-10.7
	c-0.7-2.6-3.7-4.5-5.8-6.6c-3.1-3-6.6-5.6-9.6-8.7c-4.9-5.2-6.2-11.5-3.3-18c2.7-6.2,8.5-8.2,14.8-8.2c3.7,0,7.5,0.8,11.6,1.3
	c-0.2,4.2-0.5,7.8-0.7,11.4c-0.5,0-1,0.1-1.4,0.1c-0.4-0.8-1.1-1.5-1.3-2.3c-1-4.3-4.1-5.7-8.1-6c-3.8-0.3-7,0.7-8.8,4.2
	c-1.9,3.8-0.7,7.2,2.2,9.9c3.4,3.2,7.3,5.9,10.4,9.3c3.2,3.6,6.7,7.6,8.2,12.1c2.4,6.9-0.9,14-6.8,17.8c-5.2,3.4-17.3,3.9-21.6,0.8
	c-0.6-0.4-1.4-1.2-1.5-1.9c-0.1-3.8-0.1-7.7-0.1-11.5C210.8,78.7,211.5,78.6,212.2,78.5z"/>
<path class="st0" d="M340.8,63.7c11-3.6,20.3,8.1,17.2,19.4c-1.5,5.5-11.2,8.4-15.6,4.7c-0.9-0.8-1.7-2.2-1.7-3.4
	c-0.2-5.5-0.1-11-0.1-16.5C340.5,66.5,340.7,65.1,340.8,63.7z"/>
<path class="st0" d="M340.8,38.7c4.6-1.1,8.3-0.2,10.5,3.8c2.5,4.4,3.1,9,0.4,13.6c-2.7,4.5-6.9,2.4-10.9,2.8
	C340.8,52,340.8,45.6,340.8,38.7z"/>
</svg>
